<svg width="11" height="20" viewBox="0 0 11 20" fill="none" xmlns="http://www.w3.org/2000/svg">
<path fill-rule="evenodd" clip-rule="evenodd" d="M10.7692 0.225964C10.8424 0.297411 10.9004 0.382286 10.94 0.475729C10.9796 0.569172 11 0.669347 11 0.770516C11 0.871684 10.9796 0.971859 10.94 1.0653C10.9004 1.15875 10.8424 1.24362 10.7692 1.31507L1.89763 10.0002L10.7692 18.6853C10.9167 18.8298 10.9996 19.0256 10.9996 19.2299C10.9996 19.4341 10.9167 19.63 10.7692 19.7744C10.6217 19.9189 10.4217 20 10.2131 20C10.0045 20 9.80444 19.9189 9.65694 19.7744L0.230774 10.5448C0.157622 10.4733 0.0995832 10.3884 0.0599831 10.295C0.0203831 10.2015 0 10.1014 0 10.0002C0 9.89903 0.0203831 9.79886 0.0599831 9.70542C0.0995832 9.61197 0.157622 9.5271 0.230774 9.45565L9.65694 0.225964C9.72991 0.154337 9.81659 0.0975082 9.91202 0.0587336C10.0075 0.019959 10.1098 0 10.2131 0C10.3164 0 10.4187 0.019959 10.5141 0.0587336C10.6096 0.0975082 10.6963 0.154337 10.7692 0.225964Z" fill="black"/>
</svg>
