<svg width="16" height="15" viewBox="0 0 16 15" fill="none" xmlns="http://www.w3.org/2000/svg">
<path d="M7.53223 0.550781C9.0827 0.365355 10.6518 0.687751 11.9971 1.4668C13.3423 2.24595 14.3893 3.43886 14.9766 4.85938C15.5637 6.27967 15.6599 7.85084 15.251 9.33008C14.8419 10.8093 13.9493 12.1161 12.71 13.0488C11.4703 13.9817 9.95264 14.4882 8.39062 14.4883H8.38965C7.31136 14.4909 6.24653 14.2501 5.27832 13.7842L5.06152 13.6797L4.8457 13.7832C3.73922 14.3132 2.51246 14.5567 1.2832 14.4893L1.26953 14.4883H1.25586C1.04031 14.4883 0.813176 14.4836 0.583008 14.4746H0.579102C0.563226 14.4741 0.548252 14.4689 0.536133 14.4609C0.524286 14.4532 0.515785 14.4433 0.510742 14.4326L0.505859 14.4238L0.5 14.3906C0.501174 14.3801 0.505293 14.3691 0.512695 14.3594C1.27622 13.4544 1.85493 12.4118 2.21582 11.2891L2.2832 11.0811L2.17578 10.8906C1.4187 9.54985 1.13059 8.00126 1.35547 6.48438C1.58043 4.96759 2.30614 3.56479 3.42188 2.49219C4.53779 1.41944 5.98173 0.736249 7.53223 0.550781ZM8.71191 0.667969C7.03633 0.590993 5.38767 1.11567 4.07324 2.14551C2.7588 3.17544 1.86705 4.64159 1.56543 6.27246C1.26381 7.9036 1.57387 9.58667 2.43652 11.0088V11.0098C2.44551 11.0245 2.44775 11.041 2.44531 11.0566C2.2273 11.946 1.84269 12.7878 1.30957 13.5381L0.770508 14.2969L1.70117 14.3271C2.83421 14.3643 3.95557 14.0902 4.94043 13.5352L4.96094 13.5244L4.98047 13.5107C4.98752 13.5059 4.99534 13.5016 5.00391 13.499L5.03027 13.4951C5.04663 13.4952 5.0626 13.4995 5.07617 13.5068L5.07715 13.5078C6.55169 14.2978 8.26636 14.533 9.90332 14.1719C11.5405 13.8106 12.9915 12.8763 13.9844 11.54C14.9771 10.2038 15.4448 8.55683 15.2988 6.90527C15.1527 5.25347 14.4024 3.71088 13.1904 2.56445C11.9787 1.4184 10.3873 0.745005 8.71191 0.667969ZM5.26855 8.95605H10.7314C10.7565 8.95605 10.7795 8.96528 10.7949 8.98047C10.8101 8.9954 10.8174 9.01447 10.8174 9.03223C10.8173 9.04981 10.8098 9.06819 10.7949 9.08301C10.7795 9.0982 10.7565 9.1084 10.7314 9.1084H5.26855C5.24362 9.10831 5.22142 9.09814 5.20605 9.08301C5.19099 9.06814 5.18366 9.04991 5.18359 9.03223C5.18359 9.01445 5.19089 8.99541 5.20605 8.98047C5.22141 8.96545 5.24372 8.95614 5.26855 8.95605ZM5.26855 5.88184H9.1709C9.19576 5.88185 9.21799 5.89126 9.2334 5.90625C9.24857 5.92119 9.25586 5.94023 9.25586 5.95801C9.2558 5.97572 9.24851 5.99391 9.2334 6.00879C9.21799 6.02394 9.19591 6.03416 9.1709 6.03418H5.26855C5.24362 6.0341 5.22142 6.02392 5.20605 6.00879C5.19099 5.99392 5.18365 5.97569 5.18359 5.95801C5.18359 5.94023 5.19089 5.92119 5.20605 5.90625C5.22141 5.89124 5.24373 5.88192 5.26855 5.88184Z" fill="white" stroke="#1A1A1A"/>
</svg>
