<svg width="49" height="51" viewBox="0 0 49 51" fill="none" xmlns="http://www.w3.org/2000/svg">
<path d="M29.339 2.41886L9.02738 7.86133C4.04169 9.19724 1.08297 14.3219 2.41888 19.3076L7.86135 39.6192C9.19726 44.6049 14.3219 47.5636 19.3076 46.2277L39.6192 40.7852C44.6049 39.4493 47.5636 34.3246 46.2277 29.339L40.7852 9.02736C39.4493 4.04167 34.3247 1.08295 29.339 2.41886Z" fill="#3B82F6"/>
<path d="M35.047 12.6167H14.0189C9.50254 12.6167 5.84131 16.2779 5.84131 20.7943V41.8224C5.84131 46.3388 9.50254 50 14.0189 50H35.047C39.5634 50 43.2246 46.3388 43.2246 41.8224V20.7943C43.2246 16.2779 39.5634 12.6167 35.047 12.6167Z" fill="white" fill-opacity="0.2"/>
<path d="M35.047 12.6167H14.0189C9.50254 12.6167 5.84131 16.2779 5.84131 20.7943V41.8224C5.84131 46.3388 9.50254 50 14.0189 50H35.047C39.5634 50 43.2246 46.3388 43.2246 41.8224V20.7943C43.2246 16.2779 39.5634 12.6167 35.047 12.6167Z" stroke="white" stroke-opacity="0.5" stroke-width="0.5"/>
<mask id="path-4-inside-1_279_2979" fill="white">
<path d="M14.9463 32.4432L14.0603 32.7796C13.8577 32.8566 13.6323 32.7515 13.5569 32.545C13.4815 32.3385 13.5845 32.1088 13.7871 32.0318L14.6731 31.6954C14.7181 31.6783 14.7642 31.6702 14.8096 31.6702C14.9684 31.6702 15.1178 31.7695 15.1764 31.9301C15.2519 32.1365 15.1488 32.3663 14.9463 32.4432ZM16.0258 32.861C15.9731 32.8365 15.9178 32.8248 15.8634 32.8248C15.715 32.8248 15.573 32.9114 15.5073 33.058L15.1141 33.9348C15.0243 34.1352 15.1108 34.3719 15.3073 34.4635C15.5039 34.5551 15.7361 34.4669 15.826 34.2665L16.2191 33.3898C16.3089 33.1894 16.2224 32.9527 16.0258 32.861ZM19.6291 33.831C20.5927 34.5375 21.6357 35.1643 22.7468 35.7038L24.3416 32.1227C24.4309 31.9221 24.6629 31.8333 24.8597 31.9244C25.0565 32.0154 25.1436 32.2519 25.0543 32.4526L23.4595 36.0336C24.5879 36.5305 25.7414 36.9192 26.8946 37.1936C26.3487 34.6292 26.2018 31.9035 26.5448 30.3898C26.5934 30.1751 26.8032 30.0413 27.0142 30.0908C27.2248 30.1404 27.3561 30.3547 27.3074 30.5693C26.9723 32.0485 27.1499 34.8158 27.7366 37.3737C28.6873 37.5541 29.6332 37.6557 30.5609 37.6752L30.6233 37.535C29.7457 36.2966 28.9906 34.022 28.5834 31.3675C28.2849 29.421 28.1517 26.9749 28.6055 25.6112C28.5986 25.6072 28.5919 25.6032 28.585 25.5992C28.5827 25.5978 28.5803 25.5964 28.578 25.595C28.3419 25.4564 28.0977 25.3285 27.8485 25.2132C27.589 25.0931 27.3233 24.9862 27.0553 24.8938C26.5756 25.73 25.495 26.7949 24.0169 27.8779C22.3723 29.0828 20.5268 30.1066 18.9536 30.6867C18.7502 30.7617 18.5259 30.6544 18.4525 30.4472C18.379 30.24 18.4841 30.0112 18.6874 29.9363C20.1734 29.3883 21.995 28.3766 23.5601 27.2298C25.1025 26.0997 26.1994 24.9893 26.4945 24.2592C26.5709 24.0703 26.7748 23.9708 26.9671 24.0285C26.9767 24.0315 26.9864 24.0344 26.9961 24.0373L29.1386 19.2265C29.277 18.9158 29.5257 18.6787 29.839 18.5588C29.9823 18.5039 30.1314 18.4766 30.28 18.4766C30.4563 18.4766 30.6321 18.515 30.7975 18.5916C31.4264 18.8827 31.7057 19.6413 31.4203 20.2827L29.2777 25.0934C29.2862 25.0989 29.2948 25.1044 29.3033 25.1099C29.4724 25.2194 29.5332 25.4415 29.4439 25.6244C29.012 26.51 28.9769 28.7684 29.3567 31.2442C29.7601 33.8751 30.5356 36.1692 31.3804 37.2313C31.4738 37.3487 31.4941 37.5099 31.4327 37.6476L31.1677 38.2425C31.1042 38.3851 30.9649 38.4766 30.8114 38.4766C30.8108 38.4766 30.8102 38.4766 30.8095 38.4766C29.6761 38.471 28.5153 38.347 27.3505 38.1104C27.3424 38.109 27.3342 38.1074 27.3262 38.1055C25.7985 37.793 24.2647 37.2867 22.7794 36.5992C22.779 36.599 22.7786 36.5988 22.7781 36.5986C22.7777 36.5984 22.7772 36.5982 22.7768 36.598C20.9499 35.7521 19.2908 34.6813 17.8456 33.4154C17.6817 33.2718 17.663 33.0199 17.8038 32.8528C17.9446 32.6856 18.1918 32.6665 18.3556 32.8102C18.5473 32.978 18.7428 33.1423 18.9422 33.303C21.2174 32.0698 23.3778 30.3848 24.2494 29.154C24.3759 28.9753 24.6204 28.9351 24.7958 29.0641C24.971 29.1931 25.0105 29.4425 24.884 29.6211C23.9919 30.8807 21.8822 32.5622 19.6291 33.831ZM30.7076 19.953C30.8147 19.7123 30.7099 19.4275 30.4739 19.3182C30.3596 19.2653 30.2318 19.2609 30.1141 19.3059C29.9966 19.3509 29.9032 19.4399 29.8513 19.5565L27.739 24.2996C27.8847 24.3582 28.0292 24.4206 28.172 24.4866C28.3147 24.5527 28.456 24.6225 28.5952 24.6958L30.7076 19.953ZM17.3812 29.8394C17.5777 29.931 17.81 29.8429 17.8999 29.6425L18.2931 28.7658C18.383 28.5654 18.2966 28.3287 18.1 28.237C18.0473 28.2124 17.9919 28.2007 17.9375 28.2007C17.7891 28.2007 17.6471 28.2873 17.5814 28.4339L17.1881 29.3106C17.0982 29.511 17.1846 29.7477 17.3812 29.8394ZM13.8431 30.4554L14.703 30.8563C14.8996 30.9478 15.1319 30.8597 15.2217 30.6593C15.3115 30.4589 15.225 30.2222 15.0285 30.1305L14.1685 29.7297C14.1158 29.7051 14.0605 29.6934 14.0061 29.6934C13.8576 29.6934 13.7156 29.78 13.6499 29.9267C13.56 30.1271 13.6465 30.3638 13.8431 30.4554ZM15.6314 29.5587C15.7068 29.7653 15.9322 29.8703 16.1347 29.7934C16.3373 29.7165 16.4403 29.4868 16.3649 29.2802L16.0349 28.3769C15.9763 28.2163 15.8269 28.1171 15.6681 28.1171C15.6227 28.1171 15.5766 28.1251 15.5316 28.1422C15.329 28.2191 15.226 28.4489 15.3015 28.6554L15.6314 29.5587ZM16.2423 30.0873C16.3925 30.0302 16.5487 30.0019 16.7043 30.0019C16.8915 30.0019 17.0781 30.0429 17.2533 30.1246C17.5744 30.2743 17.8191 30.5425 17.9423 30.8799C18.0657 31.2173 18.0526 31.5833 17.9058 31.9108C17.759 32.2382 17.4959 32.4876 17.1649 32.6133C16.8341 32.7389 16.475 32.7257 16.1539 32.576C15.8327 32.4262 15.5881 32.158 15.4648 31.8206C15.3415 31.4832 15.3545 31.1171 15.5014 30.7898C15.6482 30.4624 15.9114 30.2129 16.2423 30.0873ZM16.2131 31.1216C16.1532 31.2551 16.1479 31.4044 16.1982 31.5421C16.2485 31.6797 16.3483 31.7892 16.4793 31.8503C16.5508 31.8836 16.6269 31.9003 16.7032 31.9003C16.7668 31.9003 16.8305 31.8888 16.8918 31.8655C17.0268 31.8143 17.1341 31.7125 17.194 31.5789C17.2539 31.4454 17.2592 31.2961 17.2089 31.1584C17.1586 31.0207 17.0588 30.9113 16.9279 30.8503C16.7969 30.7892 16.6505 30.7838 16.5154 30.8351C16.3804 30.8864 16.273 30.9881 16.2131 31.1216Z"/>
</mask>
<path d="M14.9463 32.4432L14.0603 32.7796C13.8577 32.8566 13.6323 32.7515 13.5569 32.545C13.4815 32.3385 13.5845 32.1088 13.7871 32.0318L14.6731 31.6954C14.7181 31.6783 14.7642 31.6702 14.8096 31.6702C14.9684 31.6702 15.1178 31.7695 15.1764 31.9301C15.2519 32.1365 15.1488 32.3663 14.9463 32.4432ZM16.0258 32.861C15.9731 32.8365 15.9178 32.8248 15.8634 32.8248C15.715 32.8248 15.573 32.9114 15.5073 33.058L15.1141 33.9348C15.0243 34.1352 15.1108 34.3719 15.3073 34.4635C15.5039 34.5551 15.7361 34.4669 15.826 34.2665L16.2191 33.3898C16.3089 33.1894 16.2224 32.9527 16.0258 32.861ZM19.6291 33.831C20.5927 34.5375 21.6357 35.1643 22.7468 35.7038L24.3416 32.1227C24.4309 31.9221 24.6629 31.8333 24.8597 31.9244C25.0565 32.0154 25.1436 32.2519 25.0543 32.4526L23.4595 36.0336C24.5879 36.5305 25.7414 36.9192 26.8946 37.1936C26.3487 34.6292 26.2018 31.9035 26.5448 30.3898C26.5934 30.1751 26.8032 30.0413 27.0142 30.0908C27.2248 30.1404 27.3561 30.3547 27.3074 30.5693C26.9723 32.0485 27.1499 34.8158 27.7366 37.3737C28.6873 37.5541 29.6332 37.6557 30.5609 37.6752L30.6233 37.535C29.7457 36.2966 28.9906 34.022 28.5834 31.3675C28.2849 29.421 28.1517 26.9749 28.6055 25.6112C28.5986 25.6072 28.5919 25.6032 28.585 25.5992C28.5827 25.5978 28.5803 25.5964 28.578 25.595C28.3419 25.4564 28.0977 25.3285 27.8485 25.2132C27.589 25.0931 27.3233 24.9862 27.0553 24.8938C26.5756 25.73 25.495 26.7949 24.0169 27.8779C22.3723 29.0828 20.5268 30.1066 18.9536 30.6867C18.7502 30.7617 18.5259 30.6544 18.4525 30.4472C18.379 30.24 18.4841 30.0112 18.6874 29.9363C20.1734 29.3883 21.995 28.3766 23.5601 27.2298C25.1025 26.0997 26.1994 24.9893 26.4945 24.2592C26.5709 24.0703 26.7748 23.9708 26.9671 24.0285C26.9767 24.0315 26.9864 24.0344 26.9961 24.0373L29.1386 19.2265C29.277 18.9158 29.5257 18.6787 29.839 18.5588C29.9823 18.5039 30.1314 18.4766 30.28 18.4766C30.4563 18.4766 30.6321 18.515 30.7975 18.5916C31.4264 18.8827 31.7057 19.6413 31.4203 20.2827L29.2777 25.0934C29.2862 25.0989 29.2948 25.1044 29.3033 25.1099C29.4724 25.2194 29.5332 25.4415 29.4439 25.6244C29.012 26.51 28.9769 28.7684 29.3567 31.2442C29.7601 33.8751 30.5356 36.1692 31.3804 37.2313C31.4738 37.3487 31.4941 37.5099 31.4327 37.6476L31.1677 38.2425C31.1042 38.3851 30.9649 38.4766 30.8114 38.4766C30.8108 38.4766 30.8102 38.4766 30.8095 38.4766C29.6761 38.471 28.5153 38.347 27.3505 38.1104C27.3424 38.109 27.3342 38.1074 27.3262 38.1055C25.7985 37.793 24.2647 37.2867 22.7794 36.5992C22.779 36.599 22.7786 36.5988 22.7781 36.5986C22.7777 36.5984 22.7772 36.5982 22.7768 36.598C20.9499 35.7521 19.2908 34.6813 17.8456 33.4154C17.6817 33.2718 17.663 33.0199 17.8038 32.8528C17.9446 32.6856 18.1918 32.6665 18.3556 32.8102C18.5473 32.978 18.7428 33.1423 18.9422 33.303C21.2174 32.0698 23.3778 30.3848 24.2494 29.154C24.3759 28.9753 24.6204 28.9351 24.7958 29.0641C24.971 29.1931 25.0105 29.4425 24.884 29.6211C23.9919 30.8807 21.8822 32.5622 19.6291 33.831ZM30.7076 19.953C30.8147 19.7123 30.7099 19.4275 30.4739 19.3182C30.3596 19.2653 30.2318 19.2609 30.1141 19.3059C29.9966 19.3509 29.9032 19.4399 29.8513 19.5565L27.739 24.2996C27.8847 24.3582 28.0292 24.4206 28.172 24.4866C28.3147 24.5527 28.456 24.6225 28.5952 24.6958L30.7076 19.953ZM17.3812 29.8394C17.5777 29.931 17.81 29.8429 17.8999 29.6425L18.2931 28.7658C18.383 28.5654 18.2966 28.3287 18.1 28.237C18.0473 28.2124 17.9919 28.2007 17.9375 28.2007C17.7891 28.2007 17.6471 28.2873 17.5814 28.4339L17.1881 29.3106C17.0982 29.511 17.1846 29.7477 17.3812 29.8394ZM13.8431 30.4554L14.703 30.8563C14.8996 30.9478 15.1319 30.8597 15.2217 30.6593C15.3115 30.4589 15.225 30.2222 15.0285 30.1305L14.1685 29.7297C14.1158 29.7051 14.0605 29.6934 14.0061 29.6934C13.8576 29.6934 13.7156 29.78 13.6499 29.9267C13.56 30.1271 13.6465 30.3638 13.8431 30.4554ZM15.6314 29.5587C15.7068 29.7653 15.9322 29.8703 16.1347 29.7934C16.3373 29.7165 16.4403 29.4868 16.3649 29.2802L16.0349 28.3769C15.9763 28.2163 15.8269 28.1171 15.6681 28.1171C15.6227 28.1171 15.5766 28.1251 15.5316 28.1422C15.329 28.2191 15.226 28.4489 15.3015 28.6554L15.6314 29.5587ZM16.2423 30.0873C16.3925 30.0302 16.5487 30.0019 16.7043 30.0019C16.8915 30.0019 17.0781 30.0429 17.2533 30.1246C17.5744 30.2743 17.8191 30.5425 17.9423 30.8799C18.0657 31.2173 18.0526 31.5833 17.9058 31.9108C17.759 32.2382 17.4959 32.4876 17.1649 32.6133C16.8341 32.7389 16.475 32.7257 16.1539 32.576C15.8327 32.4262 15.5881 32.158 15.4648 31.8206C15.3415 31.4832 15.3545 31.1171 15.5014 30.7898C15.6482 30.4624 15.9114 30.2129 16.2423 30.0873ZM16.2131 31.1216C16.1532 31.2551 16.1479 31.4044 16.1982 31.5421C16.2485 31.6797 16.3483 31.7892 16.4793 31.8503C16.5508 31.8836 16.6269 31.9003 16.7032 31.9003C16.7668 31.9003 16.8305 31.8888 16.8918 31.8655C17.0268 31.8143 17.1341 31.7125 17.194 31.5789C17.2539 31.4454 17.2592 31.2961 17.2089 31.1584C17.1586 31.0207 17.0588 30.9113 16.9279 30.8503C16.7969 30.7892 16.6505 30.7838 16.5154 30.8351C16.3804 30.8864 16.273 30.9881 16.2131 31.1216Z" stroke="white" stroke-width="3" mask="url(#path-4-inside-1_279_2979)"/>
</svg>
