<svg width="49" height="51" viewBox="0 0 49 51" fill="none" xmlns="http://www.w3.org/2000/svg">
<path d="M29.339 2.41886L9.02738 7.86133C4.04169 9.19724 1.08297 14.3219 2.41888 19.3076L7.86135 39.6192C9.19726 44.6049 14.3219 47.5636 19.3076 46.2277L39.6192 40.7852C44.6049 39.4493 47.5636 34.3246 46.2277 29.339L40.7852 9.02736C39.4493 4.04167 34.3247 1.08295 29.339 2.41886Z" fill="#3B82F6"/>
<path d="M35.047 12.6167H14.0189C9.50254 12.6167 5.84131 16.2779 5.84131 20.7943V41.8224C5.84131 46.3388 9.50254 50 14.0189 50H35.047C39.5634 50 43.2246 46.3388 43.2246 41.8224V20.7943C43.2246 16.2779 39.5634 12.6167 35.047 12.6167Z" fill="white" fill-opacity="0.2"/>
<path d="M35.047 12.6167H14.0189C9.50254 12.6167 5.84131 16.2779 5.84131 20.7943V41.8224C5.84131 46.3388 9.50254 50 14.0189 50H35.047C39.5634 50 43.2246 46.3388 43.2246 41.8224V20.7943C43.2246 16.2779 39.5634 12.6167 35.047 12.6167Z" stroke="white" stroke-opacity="0.5" stroke-width="0.5"/>
<path d="M15.1572 34.9141C15.323 34.9141 15.482 34.9799 15.5992 35.0971C15.7164 35.2143 15.7822 35.3733 15.7822 35.5391V38.6641C15.7822 38.9956 15.9139 39.3135 16.1483 39.5479C16.3828 39.7824 16.7007 39.9141 17.0322 39.9141H32.0322C32.3637 39.9141 32.6817 39.7824 32.9161 39.5479C33.1505 39.3135 33.2822 38.9956 33.2822 38.6641V35.5391C33.2822 35.3733 33.3481 35.2143 33.4653 35.0971C33.5825 34.9799 33.7415 34.9141 33.9072 34.9141C34.073 34.9141 34.232 34.9799 34.3492 35.0971C34.4664 35.2143 34.5322 35.3733 34.5322 35.5391V38.6641C34.5322 39.3271 34.2688 39.963 33.8 40.4318C33.3312 40.9007 32.6953 41.1641 32.0322 41.1641H17.0322C16.3692 41.1641 15.7333 40.9007 15.2645 40.4318C14.7956 39.963 14.5322 39.3271 14.5322 38.6641V35.5391C14.5322 35.3733 14.5981 35.2143 14.7153 35.0971C14.8325 34.9799 14.9915 34.9141 15.1572 34.9141Z" fill="white"/>
<path d="M24.0895 37.3566C24.1476 37.4148 24.2166 37.4609 24.2925 37.4925C24.3684 37.524 24.4498 37.5402 24.532 37.5402C24.6142 37.5402 24.6957 37.524 24.7716 37.4925C24.8475 37.4609 24.9165 37.4148 24.9745 37.3566L28.7245 33.6066C28.8419 33.4892 28.9078 33.33 28.9078 33.1641C28.9078 32.9981 28.8419 32.8389 28.7245 32.7216C28.6072 32.6042 28.448 32.5383 28.282 32.5383C28.1161 32.5383 27.9569 32.6042 27.8395 32.7216L25.157 35.4053V24.4141C25.157 24.2483 25.0912 24.0893 24.974 23.9721C24.8568 23.8549 24.6978 23.7891 24.532 23.7891C24.3663 23.7891 24.2073 23.8549 24.0901 23.9721C23.9729 24.0893 23.907 24.2483 23.907 24.4141V35.4053L21.2245 32.7216C21.1072 32.6042 20.948 32.5383 20.782 32.5383C20.6161 32.5383 20.4569 32.6042 20.3395 32.7216C20.2222 32.8389 20.1562 32.9981 20.1562 33.1641C20.1562 33.33 20.2222 33.4892 20.3395 33.6066L24.0895 37.3566Z" fill="white"/>
</svg>
