<svg width="16" height="13" viewBox="0 0 16 13" fill="none" xmlns="http://www.w3.org/2000/svg">
<path fill-rule="evenodd" clip-rule="evenodd" d="M0 12.2778C0 12.0862 0.0766233 11.9025 0.213013 11.7671C0.349404 11.6316 0.534388 11.5556 0.727273 11.5556H15.2727C15.4656 11.5556 15.6506 11.6316 15.787 11.7671C15.9234 11.9025 16 12.0862 16 12.2778C16 12.4693 15.9234 12.653 15.787 12.7885C15.6506 12.9239 15.4656 13 15.2727 13H0.727273C0.534388 13 0.349404 12.9239 0.213013 12.7885C0.0766233 12.653 0 12.4693 0 12.2778ZM0 6.5C0 6.30845 0.0766233 6.12475 0.213013 5.98931C0.349404 5.85387 0.534388 5.77778 0.727273 5.77778H15.2727C15.4656 5.77778 15.6506 5.85387 15.787 5.98931C15.9234 6.12475 16 6.30845 16 6.5C16 6.69155 15.9234 6.87525 15.787 7.01069C15.6506 7.14613 15.4656 7.22222 15.2727 7.22222H0.727273C0.534388 7.22222 0.349404 7.14613 0.213013 7.01069C0.0766233 6.87525 0 6.69155 0 6.5ZM0 0.722222C0 0.530677 0.0766233 0.346977 0.213013 0.211534C0.349404 0.0760912 0.534388 0 0.727273 0H15.2727C15.4656 0 15.6506 0.0760912 15.787 0.211534C15.9234 0.346977 16 0.530677 16 0.722222C16 0.913767 15.9234 1.09747 15.787 1.23291C15.6506 1.36835 15.4656 1.44444 15.2727 1.44444H0.727273C0.534388 1.44444 0.349404 1.36835 0.213013 1.23291C0.0766233 1.09747 0 0.913767 0 0.722222Z" fill="black"/>
</svg>
