<svg width="9" height="16" viewBox="0 0 9 16" fill="none" xmlns="http://www.w3.org/2000/svg">
<path fill-rule="evenodd" clip-rule="evenodd" d="M0.188815 0.180771C0.248515 0.123469 0.319437 0.0780066 0.397518 0.0469869C0.475599 0.0159672 0.559305 0 0.643842 0C0.728378 0 0.812084 0.0159672 0.890165 0.0469869C0.968246 0.0780066 1.03917 0.123469 1.09887 0.180771L8.81118 7.56452C8.87104 7.62168 8.91852 7.68958 8.95092 7.76433C8.98332 7.83909 9 7.91923 9 8.00016C9 8.0811 8.98332 8.16124 8.95092 8.23599C8.91852 8.31074 8.87104 8.37865 8.81118 8.4358L1.09887 15.8196C0.978188 15.9351 0.81451 16 0.643842 16C0.473174 16 0.309495 15.9351 0.188815 15.8196C0.0681343 15.704 0.000336493 15.5473 0.000336493 15.3839C0.000336493 15.2205 0.0681343 15.0638 0.188815 14.9483L7.44739 8.00016L0.188815 1.05205C0.128963 0.994897 0.0814771 0.926996 0.0490771 0.852242C0.0166771 0.777487 0 0.697347 0 0.616412C0 0.535478 0.0166771 0.455338 0.0490771 0.380583C0.0814771 0.305829 0.128963 0.237928 0.188815 0.180771Z" fill="white"/>
</svg>
