<svg width="13" height="16" viewBox="0 0 13 16" fill="none" xmlns="http://www.w3.org/2000/svg">
<path d="M7.50098 14.9004C7.44863 15.0005 7.38065 15.0933 7.29785 15.1748C7.08745 15.3819 6.80082 15.5 6.5 15.5C6.19918 15.5 5.91255 15.3819 5.70215 15.1748C5.61935 15.0933 5.55137 15.0005 5.49902 14.9004H7.50098ZM6.5 0.5C6.58536 0.5 6.6656 0.533683 6.72363 0.59082C6.78131 0.647644 6.81245 0.72286 6.8125 0.799805V2.08887L7.22266 2.16406C7.39857 2.19611 7.57202 2.23974 7.74219 2.29297C7.634 2.71111 7.60022 3.14591 7.64453 3.57812C7.70662 4.18361 7.91882 4.76433 8.2627 5.26855C8.60654 5.77273 9.07132 6.18447 9.61426 6.46875C10.0085 6.67513 10.4355 6.80851 10.875 6.86621V11.4092L11.0244 11.5566L11.7793 12.2998H1.2207L1.97559 11.5566L2.125 11.4092V6.40039L2.12988 6.21094C2.1733 5.26555 2.53276 4.35778 3.15723 3.63086C3.82368 2.85523 4.74894 2.3349 5.76953 2.16504L6.1875 2.0957V0.799805C6.18755 0.72286 6.21869 0.647644 6.27637 0.59082C6.31997 0.547887 6.37604 0.517905 6.4375 0.505859L6.5 0.5ZM11.375 2.09961C11.6757 2.09961 11.9625 2.21779 12.1729 2.4248C12.383 2.63171 12.5 2.91098 12.5 3.2002C12.5 3.41595 12.4351 3.62794 12.3125 3.80859C12.1898 3.98927 12.014 4.13068 11.8076 4.21484C11.6012 4.29898 11.3739 4.3213 11.1543 4.27832C10.9346 4.23529 10.734 4.12904 10.5771 3.97461C10.4204 3.82026 10.3143 3.62496 10.2715 3.41309C10.2287 3.20125 10.2508 2.98129 10.335 2.78125C10.4192 2.5813 10.5621 2.40882 10.7471 2.28711C10.9323 2.16532 11.1508 2.09961 11.375 2.09961Z" stroke="#1A1A1A"/>
</svg>
