<svg width="20" height="13" viewBox="0 0 20 13" fill="none" xmlns="http://www.w3.org/2000/svg">
<path d="M10.0595 1.25534C10.087 1.24326 10.117 1.23827 10.1469 1.24084C10.1767 1.2434 10.2055 1.25342 10.2305 1.27C10.2555 1.28657 10.2759 1.30916 10.2899 1.33569C10.3038 1.36221 10.3109 1.39183 10.3105 1.42181V2.85415C10.3105 3.01889 10.3759 3.17688 10.4924 3.29336C10.6089 3.40985 10.7669 3.47529 10.9316 3.47529C11.7602 3.47529 13.4323 3.4815 15.0311 4.49644C16.2535 5.27162 17.5032 6.68285 18.2548 9.31151C16.9877 8.09035 15.5404 7.42822 14.2733 7.07665C13.4946 6.86113 12.6941 6.73362 11.8869 6.69651C11.5565 6.68097 11.2256 6.68429 10.8956 6.70645H10.8794L10.8732 6.7077H10.872L10.9316 7.32635L10.8695 6.7077C10.7162 6.7231 10.574 6.79495 10.4707 6.90928C10.3674 7.02361 10.3103 7.17226 10.3105 7.32635V8.75869C10.3105 8.89286 10.1738 8.97733 10.0595 8.92516L5.11028 5.28156L5.05811 5.24678C5.0311 5.23055 5.00874 5.2076 4.99323 5.18017C4.97771 5.15274 4.96955 5.12176 4.96955 5.09025C4.96955 5.05874 4.97771 5.02776 4.99323 5.00033C5.00874 4.9729 5.0311 4.94996 5.05811 4.93372L5.11028 4.89894L10.0595 1.25534ZM11.5527 7.93009C11.6372 7.93009 11.7295 7.93258 11.8298 7.93755C12.3689 7.96239 13.1143 8.04438 13.9416 8.27421C15.5889 8.73136 17.5393 9.76742 18.8362 12.1004C18.9063 12.2264 19.0181 12.324 19.1523 12.3765C19.2865 12.4291 19.4348 12.4334 19.5719 12.3886C19.7089 12.3438 19.826 12.2528 19.9033 12.1311C19.9805 12.0093 20.013 11.8646 19.9952 11.7215C19.4188 7.11268 17.6523 4.68775 15.697 3.44796C14.1503 2.46656 12.5577 2.27774 11.5527 2.24171V1.42181C11.5528 1.16598 11.4839 0.914872 11.3532 0.694969C11.2225 0.475066 11.0348 0.294526 10.81 0.172398C10.5852 0.050271 10.3316 -0.00891464 10.076 0.00108667C9.82038 0.011088 9.57219 0.0899052 9.35763 0.229222L4.39597 3.88152C4.19085 4.00956 4.02168 4.18769 3.9044 4.39915C3.78712 4.61061 3.72559 4.84844 3.72559 5.09025C3.72559 5.33206 3.78712 5.56989 3.9044 5.78135C4.02168 5.99281 4.19085 6.17095 4.39597 6.29899L9.35763 9.95128C9.57219 10.0906 9.82038 10.1694 10.076 10.1794C10.3316 10.1894 10.5852 10.1302 10.81 10.0081C11.0348 9.88598 11.2225 9.70544 11.3532 9.48553C11.4839 9.26563 11.5528 9.01452 11.5527 8.75869V7.93009Z" fill="black"/>
<path d="M6.49915 0.360922C6.45076 0.295094 6.38986 0.239459 6.31994 0.197203C6.25002 0.154946 6.17245 0.126899 6.09167 0.114667C6.0109 0.102435 5.9285 0.106259 5.8492 0.125919C5.7699 0.14558 5.69526 0.18069 5.62956 0.22924L0.670388 3.88153C0.465264 4.00957 0.296098 4.18771 0.178818 4.39917C0.061537 4.61063 0 4.84846 0 5.09027C0 5.33208 0.061537 5.5699 0.178818 5.78136C0.296098 5.99283 0.465264 6.17096 0.670388 6.299L5.63204 9.9513C5.69758 10.0014 5.77245 10.038 5.85228 10.0589C5.93211 10.0797 6.0153 10.0845 6.09699 10.0729C6.17867 10.0612 6.25723 10.0334 6.32805 9.99111C6.39888 9.94878 6.46057 9.89276 6.5095 9.82633C6.55844 9.75989 6.59365 9.68437 6.61308 9.60418C6.63251 9.52399 6.63577 9.44073 6.62266 9.35926C6.60955 9.2778 6.58034 9.19976 6.53674 9.12971C6.49314 9.05966 6.43602 8.99899 6.36871 8.95126L1.38346 5.28158L1.33128 5.24679C1.30427 5.23056 1.28192 5.20762 1.2664 5.18019C1.25088 5.15276 1.24273 5.12178 1.24273 5.09027C1.24273 5.05875 1.25088 5.02778 1.2664 5.00035C1.28192 4.97292 1.30427 4.94997 1.33128 4.93374L1.38346 4.89896L6.36747 1.22927C6.50006 1.13157 6.58842 0.985202 6.61311 0.822363C6.6378 0.659524 6.59681 0.493544 6.49915 0.360922Z" fill="black"/>
</svg>
