<svg width="49" height="51" viewBox="0 0 49 51" fill="none" xmlns="http://www.w3.org/2000/svg">
<path d="M29.339 2.41886L9.02738 7.86133C4.04169 9.19724 1.08297 14.3219 2.41888 19.3076L7.86135 39.6192C9.19726 44.6049 14.3219 47.5636 19.3076 46.2277L39.6192 40.7852C44.6049 39.4493 47.5636 34.3246 46.2277 29.339L40.7852 9.02736C39.4493 4.04167 34.3247 1.08295 29.339 2.41886Z" fill="#3B82F6"/>
<path d="M35.047 12.6167H14.0189C9.50254 12.6167 5.84131 16.2779 5.84131 20.7943V41.8224C5.84131 46.3388 9.50254 50 14.0189 50H35.047C39.5634 50 43.2246 46.3388 43.2246 41.8224V20.7943C43.2246 16.2779 39.5634 12.6167 35.047 12.6167Z" fill="white" fill-opacity="0.2"/>
<path d="M35.047 12.6167H14.0189C9.50254 12.6167 5.84131 16.2779 5.84131 20.7943V41.8224C5.84131 46.3388 9.50254 50 14.0189 50H35.047C39.5634 50 43.2246 46.3388 43.2246 41.8224V20.7943C43.2246 16.2779 39.5634 12.6167 35.047 12.6167Z" stroke="white" stroke-opacity="0.5" stroke-width="0.5"/>
<mask id="path-4-inside-1_279_2966" fill="white">
<path d="M34.3191 22.6893C34.4232 22.7935 34.4933 22.9268 34.5201 23.0717C34.5469 23.2166 34.5291 23.3662 34.4691 23.5008L26.2274 42.0437C26.1698 42.1734 26.0756 42.2835 25.9564 42.3604C25.8371 42.4372 25.698 42.4776 25.5561 42.4765C25.4142 42.4755 25.2757 42.433 25.1576 42.3543C25.0396 42.2756 24.947 42.1641 24.8914 42.0335L21.9179 35.0901L14.9728 32.1152C14.8428 32.0593 14.7318 31.9666 14.6536 31.8486C14.5753 31.7306 14.5332 31.5924 14.5322 31.4508C14.5313 31.3092 14.5717 31.1705 14.6484 31.0514C14.7251 30.9324 14.8348 30.8384 14.9641 30.7807L33.5076 22.5392C33.6419 22.4796 33.7913 22.462 33.9358 22.4887C34.0804 22.5155 34.215 22.5854 34.3191 22.6893ZM17.081 31.4334L22.7585 33.8664C22.9302 33.9404 23.0669 34.0775 23.1402 34.2495L25.5733 39.9269L32.3683 24.6386L17.081 31.4334Z"/>
</mask>
<path d="M34.3191 22.6893L35.3801 21.629L35.3784 21.6273L34.3191 22.6893ZM34.4691 23.5008L33.0991 22.89L33.0984 22.8915L34.4691 23.5008ZM26.2274 42.0437L24.8567 41.4345L24.8565 41.435L26.2274 42.0437ZM24.8914 42.0335L26.2715 41.4458L26.2703 41.443L24.8914 42.0335ZM21.9179 35.0901L23.2968 34.4996L23.0604 33.9477L22.5085 33.7113L21.9179 35.0901ZM14.9728 32.1152L14.3802 33.4931L14.3822 33.494L14.9728 32.1152ZM14.9641 30.7807L14.3549 29.41L14.3534 29.4106L14.9641 30.7807ZM33.5076 22.5392L32.8989 21.1683L32.8984 21.1685L33.5076 22.5392ZM17.081 31.4334L16.4717 30.0627L13.3314 31.4585L16.4902 32.8121L17.081 31.4334ZM22.7585 33.8664L23.3523 32.4889L23.3494 32.4876L22.7585 33.8664ZM23.1402 34.2495L21.7605 34.838L21.7615 34.8404L23.1402 34.2495ZM25.5733 39.9269L24.1945 40.5178L25.5482 43.6765L26.944 40.5361L25.5733 39.9269ZM32.3683 24.6386L33.739 25.2478L35.323 21.6838L31.759 23.2679L32.3683 24.6386ZM34.3191 22.6893L33.258 23.7496C33.1477 23.6392 33.0735 23.4979 33.0451 23.3445L34.5201 23.0717L35.9951 22.799C35.9131 22.3557 35.6987 21.9478 35.3801 21.629L34.3191 22.6893ZM34.5201 23.0717L33.0451 23.3445C33.0167 23.191 33.0355 23.0326 33.0991 22.89L34.4691 23.5008L35.8392 24.1115C36.0227 23.6998 36.077 23.2422 35.9951 22.799L34.5201 23.0717ZM34.4691 23.5008L33.0984 22.8915L24.8567 41.4345L26.2274 42.0437L27.5981 42.653L35.8398 24.11L34.4691 23.5008ZM26.2274 42.0437L24.8565 41.435C24.9175 41.2976 25.0173 41.1811 25.1436 41.0996L25.9564 42.3604L26.7691 43.6211C27.134 43.3859 27.4222 43.0492 27.5983 42.6525L26.2274 42.0437ZM25.9564 42.3604L25.1436 41.0996C25.2699 41.0182 25.4173 40.9754 25.5675 40.9766L25.5561 42.4765L25.5446 43.9765C25.9787 43.9798 26.4043 43.8563 26.7691 43.6211L25.9564 42.3604ZM25.5561 42.4765L25.5675 40.9766C25.7178 40.9777 25.8645 41.0227 25.9896 41.1061L25.1576 42.3543L24.3257 43.6024C24.6869 43.8432 25.1106 43.9732 25.5446 43.9765L25.5561 42.4765ZM25.1576 42.3543L25.9896 41.1061C26.1146 41.1895 26.2126 41.3075 26.2715 41.4458L24.8914 42.0335L23.5114 42.6213C23.6815 43.0207 23.9645 43.3617 24.3257 43.6024L25.1576 42.3543ZM24.8914 42.0335L26.2703 41.443L23.2968 34.4996L21.9179 35.0901L20.539 35.6806L23.5126 42.624L24.8914 42.0335ZM21.9179 35.0901L22.5085 33.7113L15.5635 30.7364L14.9728 32.1152L14.3822 33.494L21.3273 36.4689L21.9179 35.0901ZM14.9728 32.1152L15.5655 30.7373C15.7033 30.7965 15.8208 30.8946 15.9037 31.0196L14.6536 31.8486L13.4035 32.6777C13.6429 33.0386 13.9823 33.322 14.3802 33.4931L14.9728 32.1152ZM14.6536 31.8486L15.9037 31.0196C15.9866 31.1446 16.0312 31.291 16.0322 31.441L14.5322 31.4508L13.0323 31.4606C13.0351 31.8938 13.1641 32.3167 13.4035 32.6777L14.6536 31.8486ZM14.5322 31.4508L16.0322 31.441C16.0332 31.591 15.9904 31.738 15.9092 31.864L14.6484 31.0514L13.3875 30.2389C13.1529 30.6029 13.0294 31.0275 13.0323 31.4606L14.5322 31.4508ZM14.6484 31.0514L15.9092 31.864C15.828 31.9901 15.7117 32.0897 15.5748 32.1508L14.9641 30.7807L14.3534 29.4106C13.9578 29.587 13.6222 29.8748 13.3875 30.2389L14.6484 31.0514ZM14.9641 30.7807L15.5733 32.1514L34.1168 23.9099L33.5076 22.5392L32.8984 21.1685L14.3549 29.41L14.9641 30.7807ZM33.5076 22.5392L34.1162 23.9102C33.9739 23.9734 33.8157 23.992 33.6626 23.9637L33.9358 22.4887L34.2091 21.0138C33.7668 20.9319 33.31 20.9857 32.8989 21.1683L33.5076 22.5392ZM33.9358 22.4887L33.6626 23.9637C33.5143 23.9362 33.3734 23.8647 33.2597 23.7513L34.3191 22.6893L35.3784 21.6273C35.0565 21.3062 34.6465 21.0949 34.2091 21.0138L33.9358 22.4887ZM17.081 31.4334L16.4902 32.8121L22.1677 35.2451L22.7585 33.8664L23.3494 32.4876L17.6718 30.0546L17.081 31.4334ZM22.7585 33.8664L22.1648 35.2438C21.983 35.1655 21.8382 35.0202 21.7605 34.838L23.1402 34.2495L24.52 33.661C24.2956 33.1349 23.8775 32.7152 23.3523 32.4889L22.7585 33.8664ZM23.1402 34.2495L21.7615 34.8404L24.1945 40.5178L25.5733 39.9269L26.952 39.3361L24.519 33.6587L23.1402 34.2495ZM25.5733 39.9269L26.944 40.5361L33.739 25.2478L32.3683 24.6386L30.9975 24.0293L24.2026 39.3177L25.5733 39.9269ZM32.3683 24.6386L31.759 23.2679L16.4717 30.0627L17.081 31.4334L17.6902 32.8041L32.9775 26.0093L32.3683 24.6386Z" fill="white" mask="url(#path-4-inside-1_279_2966)"/>
</svg>
