<svg width="15" height="15" viewBox="0 0 15 15" fill="none" xmlns="http://www.w3.org/2000/svg">
<path d="M4.92119 6.45607L10.0763 3.8785M10.0788 11.1227L4.9285 8.54759M14.5 2.83333C14.5 4.12199 13.4554 5.16667 12.1667 5.16667C10.878 5.16667 9.83333 4.12199 9.83333 2.83333C9.83333 1.54467 10.878 0.5 12.1667 0.5C13.4554 0.5 14.5 1.54467 14.5 2.83333ZM5.16667 7.5C5.16667 8.7887 4.12199 9.83333 2.83333 9.83333C1.54467 9.83333 0.5 8.7887 0.5 7.5C0.5 6.2113 1.54467 5.16667 2.83333 5.16667C4.12199 5.16667 5.16667 6.2113 5.16667 7.5ZM14.5 12.1667C14.5 13.4554 13.4554 14.5 12.1667 14.5C10.878 14.5 9.83333 13.4554 9.83333 12.1667C9.83333 10.878 10.878 9.83333 12.1667 9.83333C13.4554 9.83333 14.5 10.878 14.5 12.1667Z" stroke="#1A1A1A"/>
</svg>
