<svg width="9" height="16" viewBox="0 0 9 16" fill="none" xmlns="http://www.w3.org/2000/svg">
<path fill-rule="evenodd" clip-rule="evenodd" d="M8.81119 15.8192C8.75148 15.8765 8.68056 15.922 8.60248 15.953C8.5244 15.984 8.44069 16 8.35616 16C8.27162 16 8.18792 15.984 8.10984 15.953C8.03175 15.922 7.96083 15.8765 7.90113 15.8192L0.188816 8.43548C0.128964 8.37832 0.0814788 8.31042 0.0490787 8.23567C0.0166785 8.16091 6.92321e-07 8.08077 6.99396e-07 7.99984C7.06472e-07 7.9189 0.0166786 7.83876 0.0490787 7.76401C0.0814788 7.68925 0.128964 7.62135 0.188816 7.5642L7.90113 0.180447C8.02181 0.0649079 8.18549 -7.12067e-08 8.35616 -5.62864e-08C8.52683 -4.13661e-08 8.69051 0.064908 8.81119 0.180448C8.93187 0.295987 8.99966 0.452692 8.99966 0.616089C8.99966 0.779486 8.93187 0.936191 8.81119 1.05173L1.55261 7.99984L8.81119 14.9479C8.87104 15.0051 8.91852 15.073 8.95092 15.1478C8.98332 15.2225 9 15.3027 9 15.3836C9 15.4645 8.98332 15.5447 8.95092 15.6194C8.91852 15.6942 8.87104 15.7621 8.81119 15.8192Z" fill="white"/>
</svg>
